<?xml version="1.0" standalone="no"?>
<!DOCTYPE svg PUBLIC "-//W3C//DTD SVG 20010904//EN"
 "http://www.w3.org/TR/2001/REC-SVG-20010904/DTD/svg10.dtd">
<svg version="1.0" xmlns="http://www.w3.org/2000/svg"
 width="632.000000pt" height="632.000000pt" viewBox="0 0 632.000000 632.000000"
 preserveAspectRatio="xMidYMid meet">
<metadata>
Created by potrace 1.14, written by Peter Selinger 2001-2017
</metadata>
<g transform="translate(0.000000,632.000000) scale(0.100000,-0.100000)"
fill="#000000" stroke="none">
<path d="M2730 6270 c-310 -83 -548 -220 -783 -449 -54 -53 -99 -97 -100 -98
-1 0 -36 5 -77 13 -74 13 -364 13 -420 0 -14 -3 -41 -9 -60 -12 -234 -40 -516
-172 -710 -332 -102 -84 -227 -219 -288 -308 -131 -195 -208 -369 -252 -574
-29 -137 -38 -229 -35 -370 4 -170 23 -288 72 -445 36 -116 141 -326 214 -429
125 -176 329 -361 505 -460 l70 -39 0 -1111 c0 -611 3 -1130 6 -1153 20 -122
82 -236 178 -327 92 -87 201 -140 315 -154 28 -3 847 -6 1820 -6 1670 0 1773
1 1830 18 208 62 359 214 415 419 21 77 21 87 22 1196 l0 1119 77 45 c261 152
481 387 619 662 70 140 134 344 147 470 4 33 8 71 11 85 5 32 6 268 0 295 -2
11 -7 47 -12 80 -4 33 -8 62 -9 65 -1 3 -5 21 -9 40 -17 78 -69 235 -102 308
-32 70 -120 230 -134 242 -3 3 -25 32 -50 65 -174 235 -435 428 -722 534 -65
23 -233 67 -293 76 -123 18 -414 13 -483 -9 -16 -5 -41 14 -122 93 -202 199
-427 339 -680 420 -178 58 -197 60 -539 60 -315 0 -316 0 -421 -29z m617 -243
c5 -3 31 -8 58 -11 155 -21 389 -115 555 -225 111 -73 307 -269 382 -381 157
-237 244 -507 249 -775 2 -111 51 -169 143 -170 60 0 105 27 129 78 20 41 15
231 -8 347 -3 14 -7 34 -9 46 -25 131 -82 297 -147 427 l-49 97 33 2 c608 28
1164 -392 1306 -989 141 -587 -143 -1185 -694 -1461 -93 -47 -111 -63 -122
-117 -5 -22 -9 -356 -8 -742 l0 -703 -2008 0 -2008 0 2 724 2 723 -21 35 c-17
27 -44 47 -110 79 -130 65 -246 146 -341 239 -41 41 -125 135 -141 160 -8 12
-22 32 -31 44 -56 73 -167 325 -184 414 -3 15 -7 38 -10 52 -30 142 -30 368 0
509 24 113 69 240 120 337 43 81 95 165 120 190 5 6 28 33 49 60 167 207 471
380 756 429 89 16 284 24 295 13 3 -3 -12 -42 -35 -87 -114 -226 -179 -484
-182 -724 -1 -96 18 -139 78 -167 61 -30 113 -23 163 23 33 31 42 60 46 157
20 375 162 698 421 956 153 153 318 259 514 331 124 46 182 59 380 86 34 5
298 -1 307 -6z m1813 -4866 c3 -1 5 -142 5 -314 l-1 -313 -26 -55 c-35 -71
-80 -116 -148 -148 l-55 -26 -1780 0 -1780 0 -49 24 c-80 39 -134 102 -165
191 -3 8 -6 155 -8 327 l-4 312 43 3 c34 2 3947 1 3968 -1z"/>
<path d="M1530 3448 c-62 -23 -92 -74 -91 -153 3 -198 130 -480 361 -801 113
-158 142 -184 208 -184 65 0 117 41 138 110 16 53 2 87 -87 206 -198 266 -319
509 -335 676 -9 90 -54 143 -129 152 -22 2 -51 0 -65 -6z"/>
<path d="M3105 3445 c-36 -15 -70 -51 -83 -85 -5 -14 -8 -232 -8 -485 1 -441
2 -461 21 -494 23 -39 77 -71 120 -71 43 0 96 30 122 69 l23 34 0 466 c0 424
-2 469 -18 501 -30 60 -116 92 -177 65z"/>
<path d="M4674 3440 c-44 -22 -74 -64 -80 -113 -12 -93 -16 -113 -35 -170 -47
-137 -240 -467 -334 -572 -64 -71 -78 -155 -35 -215 39 -55 120 -76 178 -46
80 42 333 426 427 650 37 88 60 159 55 168 -1 2 4 17 10 33 19 50 21 152 4
196 -29 71 -119 104 -190 69z"/>
</g>
</svg>
